<svg width="15" height="15" viewBox="0 0 15 15" fill="none" xmlns="http://www.w3.org/2000/svg">
<path d="M13.4697 14.5303C13.7626 14.8232 14.2374 14.8232 14.5303 14.5303C14.8232 14.2374 14.8232 13.7626 14.5303 13.4697L13.4697 14.5303ZM9.59641 5.6732C9.59641 7.83993 7.83993 9.59641 5.6732 9.59641V11.0964C8.66836 11.0964 11.0964 8.66836 11.0964 5.6732H9.59641ZM5.6732 9.59641C3.50648 9.59641 1.75 7.83993 1.75 5.6732H0.25C0.25 8.66836 2.67805 11.0964 5.6732 11.0964V9.59641ZM1.75 5.6732C1.75 3.50648 3.50648 1.75 5.6732 1.75V0.25C2.67805 0.25 0.25 2.67805 0.25 5.6732H1.75ZM5.6732 1.75C7.83993 1.75 9.59641 3.50648 9.59641 5.6732H11.0964C11.0964 2.67805 8.66836 0.25 5.6732 0.25V1.75ZM14.5303 13.4697L12.022 10.9613L10.9613 12.022L13.4697 14.5303L14.5303 13.4697ZM12.022 10.9613L9.51367 8.45301L8.45301 9.51367L10.9613 12.022L12.022 10.9613Z" fill="#999A9B"/>
</svg>
